# xmcd
#
# Track frame offsets:
#	150
#	12911
#	31620
#	52706
#	68421
#	84748
#	103678
#	123198
#	142512
#	166512
#	179622
#	197715
#	213979
#	227678
#	246332
#
# Disc length: 3487 seconds
# Revision: 0
# Processed by: cddbd v1.5.2PL0 Copyright (c) Steve Scherf et al.
# Submitted via: dBpowerAMP V12.0
#
DISCID=b10d9d0f
DTITLE=Various Artist - The Blues MAgazine - Suck 'Em And See
DYEAR=2013
DGENRE=Blues
TTITLE0=The Rides - That's A Pretty Good Love
TTITLE1=Dana Fuchs - Keep On Walkin'
TTITLE2=Jonny Lang - Blew Up (The House)
TTITLE3=Miraculous Mule - Satisfied
TTITLE4=The Idle Hands - Weep And Moan
TTITLE5=Sam Hare - Good Things Only
TTITLE6=Patrick Sweany - It's Spiritual
TTITLE7=Omar Dykes - Back Door Man
TTITLE8=Gwyn Ashton - Take You Home Tonight
TTITLE9=Hot Soles - Ready To Burn
TTITLE10=Spectrum - Hope You Know
TTITLE11=Mark Pontin Group - Chasing Blood
TTITLE12=Texas Radio - Red Lips
TTITLE13=Peanut Butter Lovesicle - Lights Down Low
TTITLE14=Long John Laundry - Gran Torino
EXTD=
EXTT0=
EXTT1=
EXTT2=
EXTT3=
EXTT4=
EXTT5=
EXTT6=
EXTT7=
EXTT8=
EXTT9=
EXTT10=
EXTT11=
EXTT12=
EXTT13=
EXTT14=
PLAYORDER=
